<svg xmlns="http://www.w3.org/2000/svg" width="664.11" height="288.859" viewBox="0 0 664.11 288.859">
  <g id="Group_26281" data-name="Group 26281" transform="translate(101.821 -703.795)">
    <g id="Group_21920" data-name="Group 21920" transform="translate(-3423.541 21881.49) rotate(90)" opacity="0.6">
      <ellipse id="Ellipse_531" data-name="Ellipse 531" cx="126.204" cy="126.204" rx="126.204" ry="126.204" transform="translate(-21141.744 -3574.628)" fill="none" stroke="#000" stroke-miterlimit="10" stroke-width="1"/>
      <ellipse id="Ellipse_532" data-name="Ellipse 532" cx="104.381" cy="104.381" rx="104.381" ry="104.381" transform="translate(-21119.92 -3552.805)" fill="none" stroke="#000" stroke-miterlimit="10" stroke-width="1"/>
      <ellipse id="Ellipse_533" data-name="Ellipse 533" cx="81.168" cy="81.168" rx="81.168" ry="81.168" transform="translate(-21096.705 -3529.592)" fill="none" stroke="#000" stroke-miterlimit="10" stroke-width="1"/>
    </g>
    <path id="Path_8061" data-name="Path 8061" d="M0,61.471C33.952,61.471,60.739,33.949,60.739,0H0Z" transform="translate(175.077 808.467) rotate(180)" fill="#fea328" opacity="0.6"/>
    <ellipse id="Ellipse_535" data-name="Ellipse 535" cx="11.611" cy="11.611" rx="11.611" ry="11.611" transform="translate(121.458 848.799) rotate(90)" fill="#ffd668" opacity="0.6"/>
    <path id="Path_8062" data-name="Path 8062" d="M0,0C0,33.952,27.525,60.739,61.474,60.739V0Z" transform="translate(43.459 703.795)" fill="#51c3d8" opacity="0.6"/>
    <circle id="Ellipse_444" data-name="Ellipse 444" cx="66.881" cy="66.881" r="66.881" transform="translate(417.44 933.031) rotate(180)" fill="#ffd668" opacity="0.6"/>
    <g id="Group_21916" data-name="Group 21916" transform="translate(-3712.541 21685.49) rotate(90)" opacity="0.6">
      <circle id="Ellipse_450" data-name="Ellipse 450" cx="2.538" cy="2.538" r="2.538" transform="translate(-20860.867 -4066.773) rotate(90)" fill="#fff"/>
      <path id="Path_6373" data-name="Path 6373" d="M175.829,224.506a2.538,2.538,0,1,1-2.538-2.538A2.537,2.537,0,0,1,175.829,224.506Z" transform="translate(-20638.898 -4204.427) rotate(90)" fill="#fff"/>
      <circle id="Ellipse_451" data-name="Ellipse 451" cx="2.538" cy="2.538" r="2.538" transform="translate(-20860.867 -4000.573) rotate(90)"/>
      <circle id="Ellipse_452" data-name="Ellipse 452" cx="2.538" cy="2.538" r="2.538" transform="translate(-20860.867 -3967.473) rotate(90)"/>
      <circle id="Ellipse_453" data-name="Ellipse 453" cx="2.538" cy="2.538" r="2.538" transform="translate(-20893.68 -4066.773) rotate(90)"/>
      <path id="Path_6374" data-name="Path 6374" d="M175.829,261.019a2.538,2.538,0,1,1-2.538-2.538A2.537,2.537,0,0,1,175.829,261.019Z" transform="translate(-20635.197 -4204.427) rotate(90)"/>
      <circle id="Ellipse_454" data-name="Ellipse 454" cx="2.538" cy="2.538" r="2.538" transform="translate(-20893.68 -4000.573) rotate(90)"/>
      <circle id="Ellipse_455" data-name="Ellipse 455" cx="2.538" cy="2.538" r="2.538" transform="translate(-20893.68 -3967.473) rotate(90)"/>
      <circle id="Ellipse_456" data-name="Ellipse 456" cx="2.538" cy="2.538" r="2.538" transform="translate(-20926.492 -4066.773) rotate(90)"/>
      <path id="Path_6375" data-name="Path 6375" d="M175.829,297.532a2.538,2.538,0,1,1-2.538-2.538A2.537,2.537,0,0,1,175.829,297.532Z" transform="translate(-20631.498 -4204.427) rotate(90)"/>
      <circle id="Ellipse_457" data-name="Ellipse 457" cx="2.538" cy="2.538" r="2.538" transform="translate(-20926.492 -4000.573) rotate(90)"/>
      <circle id="Ellipse_458" data-name="Ellipse 458" cx="2.538" cy="2.538" r="2.538" transform="translate(-20926.492 -3967.473) rotate(90)"/>
      <circle id="Ellipse_459" data-name="Ellipse 459" cx="2.538" cy="2.538" r="2.538" transform="translate(-20959.303 -4066.773) rotate(90)"/>
      <path id="Path_6376" data-name="Path 6376" d="M175.829,334.045a2.538,2.538,0,1,1-2.538-2.538A2.537,2.537,0,0,1,175.829,334.045Z" transform="translate(-20627.797 -4204.427) rotate(90)"/>
      <circle id="Ellipse_460" data-name="Ellipse 460" cx="2.538" cy="2.538" r="2.538" transform="translate(-20959.303 -4000.573) rotate(90)"/>
      <circle id="Ellipse_461" data-name="Ellipse 461" cx="2.538" cy="2.538" r="2.538" transform="translate(-20959.303 -3967.473) rotate(90)"/>
    </g>
    <ellipse id="Ellipse_536" data-name="Ellipse 536" cx="42.203" cy="42.203" rx="42.203" ry="42.203" transform="translate(466.968 776.104) rotate(90)" opacity="0.6" stroke="#2f509c" stroke-linecap="round" stroke-linejoin="round" stroke-width="3.681" fill="none"/>
    <rect id="Rectangle_1838" data-name="Rectangle 1838" width="69.601" height="69.6" transform="translate(562.29 847.369) rotate(90)" fill="#2f509c" opacity="0.6"/>
  </g>
</svg>
